<svg width="506" height="186" viewBox="0 0 506 186" fill="none" xmlns="http://www.w3.org/2000/svg">
<path d="M6.64 166V110H34C41.04 110 46.32 111.333 49.84 114C53.4133 116.667 55.2 120.187 55.2 124.56C55.2 127.493 54.48 130.053 53.04 132.24C51.6 134.373 49.6267 136.027 47.12 137.2C44.6133 138.373 41.7333 138.96 38.48 138.96L40 135.68C43.52 135.68 46.64 136.267 49.36 137.44C52.08 138.56 54.1867 140.24 55.68 142.48C57.2267 144.72 58 147.467 58 150.72C58 155.52 56.1067 159.28 52.32 162C48.5333 164.667 42.96 166 35.6 166H6.64ZM19.52 156.24H34.64C38 156.24 40.5333 155.707 42.24 154.64C44 153.52 44.88 151.76 44.88 149.36C44.88 147.013 44 145.28 42.24 144.16C40.5333 142.987 38 142.4 34.64 142.4H18.56V132.96H32.4C35.5467 132.96 37.9467 132.427 39.6 131.36C41.3067 130.24 42.16 128.56 42.16 126.32C42.16 124.133 41.3067 122.507 39.6 121.44C37.9467 120.32 35.5467 119.76 32.4 119.76H19.52V156.24ZM106.212 110H119.172V166H106.212V110ZM80.7719 166H67.8119V110H80.7719V166ZM107.172 143.04H79.8119V132.08H107.172V143.04ZM125.061 166L150.021 110H162.821L187.861 166H174.261L153.781 116.56H158.901L138.341 166H125.061ZM137.541 154L140.981 144.16H169.781L173.301 154H137.541ZM193.671 166V110H217.911C222.925 110 227.245 110.827 230.871 112.48C234.498 114.08 237.298 116.4 239.271 119.44C241.245 122.48 242.231 126.107 242.231 130.32C242.231 134.48 241.245 138.08 239.271 141.12C237.298 144.107 234.498 146.4 230.871 148C227.245 149.6 222.925 150.4 217.911 150.4H200.871L206.631 144.72V166H193.671ZM229.271 166L215.271 145.68H229.111L243.271 166H229.271ZM206.631 146.16L200.871 140.08H217.191C221.191 140.08 224.178 139.227 226.151 137.52C228.125 135.76 229.111 133.36 229.111 130.32C229.111 127.227 228.125 124.827 226.151 123.12C224.178 121.413 221.191 120.56 217.191 120.56H200.871L206.631 114.4V146.16ZM252.499 166V110H277.939C284.019 110 289.379 111.173 294.019 113.52C298.659 115.813 302.286 119.04 304.899 123.2C307.513 127.36 308.819 132.293 308.819 138C308.819 143.653 307.513 148.587 304.899 152.8C302.286 156.96 298.659 160.213 294.019 162.56C289.379 164.853 284.019 166 277.939 166H252.499ZM265.459 155.36H277.299C281.033 155.36 284.259 154.667 286.979 153.28C289.753 151.84 291.886 149.813 293.379 147.2C294.926 144.587 295.699 141.52 295.699 138C295.699 134.427 294.926 131.36 293.379 128.8C291.886 126.187 289.753 124.187 286.979 122.8C284.259 121.36 281.033 120.64 277.299 120.64H265.459V155.36ZM330.236 166L311.916 110H325.356L341.276 159.6H334.556L351.196 110H363.196L379.196 159.6H372.716L389.036 110H401.436L383.116 166H369.196L355.036 122.48H358.716L344.156 166H330.236ZM399.436 166L424.396 110H437.196L462.236 166H448.636L428.156 116.56H433.276L412.716 166H399.436ZM411.916 154L415.356 144.16H444.156L447.676 154H411.916ZM479.538 166.96C475.751 166.96 472.258 166.267 469.058 164.88C465.911 163.44 463.325 161.413 461.298 158.8L468.498 150.16C470.045 152.187 471.671 153.733 473.378 154.8C475.085 155.813 476.925 156.32 478.898 156.32C484.178 156.32 486.818 153.227 486.818 147.04V120.4H467.138V110H499.698V146.32C499.698 153.253 497.991 158.427 494.578 161.84C491.165 165.253 486.151 166.96 479.538 166.96Z" fill="white"/>
<path fill-rule="evenodd" clip-rule="evenodd" d="M85.6024 24L68.8344 24.358L73.3122 34.6366L99.8859 34.5989C104.798 34.6272 107.944 35.0888 109.626 38.8573C111.458 42.9744 109.852 46.9314 107.179 48.825C103.466 51.4536 86.4054 50.323 80.4539 50.2194L85.1584 60.8089L100.056 60.7524C104.449 60.7524 105.922 60.9125 108.303 63.3526C110.107 65.1992 111.08 68.6756 109.805 71.681C107.245 77.6824 99.9521 76.4388 92.6592 76.4388C78.8291 76.4388 82.4 77.7012 78.7346 70.362C77.6293 68.1575 76.5524 65.9717 75.4093 63.7201C73.1988 59.3769 71.0355 54.9677 68.8438 50.5491C66.4821 45.7725 56.5536 25.2719 55.2594 24.6312L24 86.9341L34.8355 86.9906C36.2808 86.9906 37.1877 83.8156 37.7923 82.6191C39.795 78.6622 44.1216 70.7577 45.4064 67.6958C47.0785 63.7295 53.0205 51.5384 55.4861 47.7981C56.0529 48.3257 64.1771 64.8412 65.4336 67.3378C66.6144 69.6931 75.0504 87 75.6266 87H102.304C110.674 87 116.541 81.9879 119.242 76.2974C120.839 72.9341 121.425 68.5908 120.508 64.4172C119.252 58.7079 116.38 57.0969 115.53 55.4576C120.631 50.0215 123.39 40.7227 118.279 33.0067C111.609 22.9448 104.694 24.0848 91.979 24.0942L85.6024 24Z" fill="#FB6900" stroke="#FB6900" stroke-width="3"/>
<path d="M171.67 24H186.25V87H171.67V24ZM143.05 87H128.47V24H143.05V87ZM172.75 61.17H141.97V48.84H172.75V61.17ZM201.156 87V24H215.736V87H201.156ZM251.387 88.08C246.347 88.08 241.517 87.42 236.897 86.1C232.277 84.72 228.557 82.95 225.737 80.79L230.687 69.81C233.387 71.73 236.567 73.32 240.227 74.58C243.947 75.78 247.697 76.38 251.477 76.38C254.357 76.38 256.667 76.11 258.407 75.57C260.207 74.97 261.527 74.16 262.367 73.14C263.207 72.12 263.627 70.95 263.627 69.63C263.627 67.95 262.967 66.63 261.647 65.67C260.327 64.65 258.587 63.84 256.427 63.24C254.267 62.58 251.867 61.98 249.227 61.44C246.647 60.84 244.037 60.12 241.397 59.28C238.817 58.44 236.447 57.36 234.287 56.04C232.127 54.72 230.357 52.98 228.977 50.82C227.657 48.66 226.997 45.9 226.997 42.54C226.997 38.94 227.957 35.67 229.877 32.73C231.857 29.73 234.797 27.36 238.697 25.62C242.657 23.82 247.607 22.92 253.547 22.92C257.507 22.92 261.407 23.4 265.247 24.36C269.087 25.26 272.477 26.64 275.417 28.5L270.917 39.57C267.977 37.89 265.037 36.66 262.097 35.88C259.157 35.04 256.277 34.62 253.457 34.62C250.637 34.62 248.327 34.95 246.527 35.61C244.727 36.27 243.437 37.14 242.657 38.22C241.877 39.24 241.487 40.44 241.487 41.82C241.487 43.44 242.147 44.76 243.467 45.78C244.787 46.74 246.527 47.52 248.687 48.12C250.847 48.72 253.217 49.32 255.797 49.92C258.437 50.52 261.047 51.21 263.627 51.99C266.267 52.77 268.667 53.82 270.827 55.14C272.987 56.46 274.727 58.2 276.047 60.36C277.427 62.52 278.117 65.25 278.117 68.55C278.117 72.09 277.127 75.33 275.147 78.27C273.167 81.21 270.197 83.58 266.237 85.38C262.337 87.18 257.387 88.08 251.387 88.08ZM331.279 24H345.859V87H331.279V24ZM302.659 87H288.079V24H302.659V87ZM332.359 61.17H301.579V48.84H332.359V61.17ZM374.175 49.38H404.505V60.72H374.175V49.38ZM375.255 75.3H409.545V87H360.765V24H408.375V35.7H375.255V75.3ZM434.196 72.6L433.386 55.77L463.536 24H479.736L452.556 53.25L444.456 61.89L434.196 72.6ZM421.146 87V24H435.636V87H421.146ZM464.256 87L441.846 59.55L451.386 49.2L481.266 87H464.256Z" fill="white"/>
</svg>
